<svg width="17" height="16" viewBox="0 0 17 16" fill="none" xmlns="http://www.w3.org/2000/svg">
<path d="M11.9522 4.4248C11.9491 5.22515 12.184 6.00835 12.6272 6.6748C13.0703 6.00835 13.3053 5.22515 13.3022 4.4248H11.9522Z" fill="#848383"/>
<path d="M10.0283 2.75039H11.7523C11.8065 2.03323 11.9578 1.32676 12.2023 0.650391C11.7015 0.807064 11.2442 1.07849 10.8668 1.44307C10.4893 1.80765 10.2022 2.2553 10.0283 2.75039Z" fill="#848383"/>
<path d="M12.6272 0.5C12.184 1.16646 11.9491 1.94965 11.9522 2.75H13.3022C13.3053 1.94965 13.0703 1.16646 12.6272 0.5V0.5Z" fill="#848383"/>
<path d="M13.6016 0.650391C13.854 1.32445 14.0057 2.03207 14.0516 2.75039H15.7766C15.5912 2.26169 15.3001 1.82002 14.9241 1.45697C14.5481 1.09393 14.0965 0.818498 13.6016 0.650391Z" fill="#848383"/>
<path d="M11.7523 4.43066H10.0283C10.2137 4.91936 10.5048 5.36104 10.8808 5.72408C11.2568 6.08712 11.7084 6.36256 12.2033 6.53066C11.9505 5.85666 11.7985 5.14904 11.7523 4.43066Z" fill="#848383"/>
<path d="M11.877 3.15234V3.90234H13.377V3.15234H11.877Z" fill="#848383"/>
<path d="M11.877 15.834C12.2478 15.834 12.6103 15.724 12.9186 15.518C13.227 15.312 13.4673 15.0191 13.6092 14.6765C13.7511 14.3339 13.7883 13.9569 13.7159 13.5932C13.6436 13.2295 13.465 12.8954 13.2028 12.6332C12.9406 12.3709 12.6065 12.1924 12.2427 12.12C11.879 12.0477 11.502 12.0848 11.1594 12.2267C10.8168 12.3686 10.524 12.6089 10.3179 12.9173C10.1119 13.2256 10.002 13.5881 10.002 13.959C10.002 14.4563 10.1995 14.9332 10.5511 15.2848C10.9028 15.6364 11.3797 15.834 11.877 15.834Z" fill="#848383"/>
<path d="M14.0516 4.43066C13.9974 5.14782 13.846 5.85429 13.6016 6.53066C14.1026 6.37412 14.5601 6.10276 14.9377 5.73817C15.3153 5.37359 15.6025 4.92587 15.7766 4.43066H14.0516Z" fill="#848383"/>
<path d="M15.9268 3.15234H14.0518V3.90234H15.9268C15.9873 3.78717 16.0134 3.65696 16.0018 3.52734C16.0134 3.39773 15.9873 3.26752 15.9268 3.15234Z" fill="#848383"/>
<path d="M9.85719 3.15234V3.52734C9.84558 3.65696 9.87162 3.78717 9.93219 3.90234H11.7322V3.15234H9.85719Z" fill="#848383"/>
<path d="M14.6704 7.625H14.3404C13.8887 7.85414 13.3926 7.98211 12.8864 8C11.8624 7.92203 10.9094 7.44712 10.2305 6.67653C9.55165 5.90595 9.20067 4.90066 9.2524 3.875C9.25803 3.82819 9.25372 3.78071 9.23974 3.73568C9.22576 3.69065 9.20243 3.64908 9.17128 3.61368C9.14014 3.57828 9.10186 3.54986 9.05898 3.53027C9.01609 3.51068 8.96955 3.50037 8.9224 3.5H2.9754L2.6454 1.55C2.6305 1.47091 2.59023 1.39883 2.53068 1.34469C2.47113 1.29055 2.39555 1.25731 2.3154 1.25H0.332398C0.285249 1.25037 0.238708 1.26068 0.195819 1.28027C0.15293 1.29986 0.11466 1.32828 0.083511 1.36368C0.0523619 1.39908 0.0290359 1.44065 0.0150583 1.48568C0.00108071 1.53071 -0.00323348 1.57819 0.00239788 1.625C-0.00323348 1.67181 0.00108071 1.71929 0.0150583 1.76432C0.0290359 1.80935 0.0523619 1.85092 0.083511 1.88632C0.11466 1.92172 0.15293 1.95014 0.195819 1.96973C0.238708 1.98932 0.285249 1.99963 0.332398 2H2.0504L3.6364 11.15C3.71034 11.7057 3.97453 12.2186 4.38402 12.6015C4.7935 12.9843 5.32299 13.2135 5.8824 13.25H13.4824C13.5737 13.2384 13.6576 13.194 13.7185 13.1249C13.7793 13.0559 13.8129 12.967 13.8129 12.875C13.8129 12.783 13.7793 12.6941 13.7185 12.6251C13.6576 12.556 13.5737 12.5116 13.4824 12.5H5.9494C5.67456 12.4976 5.40574 12.4193 5.17262 12.2737C4.9395 12.1281 4.75116 11.9209 4.6284 11.675L14.2754 10.175C14.3481 10.1651 14.4149 10.1294 14.4634 10.0743C14.5119 10.0192 14.5389 9.9484 14.5394 9.875L14.8024 8C14.8024 7.85 14.8024 7.7 14.6704 7.625Z" fill="#848383"/>
<path d="M5.74512 15.834C6.11596 15.834 6.47847 15.724 6.78681 15.518C7.09515 15.312 7.33548 15.0191 7.47739 14.6765C7.61931 14.3339 7.65644 13.9569 7.58409 13.5932C7.51174 13.2295 7.33317 12.8954 7.07094 12.6332C6.80872 12.3709 6.47463 12.1924 6.11091 12.12C5.7472 12.0477 5.3702 12.0848 5.02759 12.2267C4.68497 12.3686 4.39214 12.6089 4.18611 12.9173C3.98008 13.2256 3.87012 13.5881 3.87012 13.959C3.87012 14.4563 4.06766 14.9332 4.41929 15.2848C4.77092 15.6364 5.24784 15.834 5.74512 15.834Z" fill="#848383"/>
</svg>
