<svg width="28" height="22" viewBox="0 0 28 22" fill="none" xmlns="http://www.w3.org/2000/svg">
<path d="M0.887045 0.330404C2.38204 0.330404 3.87183 0.335613 5.36683 0.325195C5.54914 0.325195 5.6377 0.382495 5.71063 0.549185C7.57547 4.82061 9.44551 9.09203 11.3051 13.3634C11.4093 13.5979 11.5291 13.6708 11.7792 13.6708C15.8162 13.6604 19.8532 13.6656 23.8902 13.6656C23.9944 13.6656 24.0934 13.6656 24.208 13.6656C24.208 14.2229 24.208 14.7595 24.208 15.3325C24.1298 15.3325 24.0465 15.3325 23.9631 15.3325C19.499 15.3325 15.04 15.3325 10.5759 15.3377C10.3936 15.3377 10.305 15.2856 10.2321 15.1189C8.36724 10.8371 6.49198 6.56043 4.62714 2.27859C4.53338 2.06502 4.4292 1.98688 4.18958 1.99209C3.08526 2.00772 1.98615 1.9973 0.881836 1.9973C0.887045 1.43993 0.887045 0.887772 0.887045 0.330404Z" fill="white"/>
<path d="M27.5572 3.76841C27.3645 4.21638 27.1613 4.66436 26.9894 5.12276C26.9269 5.28945 26.8384 5.33633 26.6665 5.33633C21.1501 5.33112 15.6285 5.33112 10.1121 5.33633C9.93501 5.33633 9.85166 5.28945 9.79436 5.12276C9.61725 4.64353 9.41931 4.17471 9.21616 3.66943C15.3524 3.66943 21.4522 3.66943 27.5572 3.66943C27.5572 3.70069 27.5572 3.73194 27.5572 3.76841Z" fill="white"/>
<path d="M10.5551 7.00879C15.7902 7.00879 20.9889 7.00879 26.224 7.00879C26.0104 7.54532 25.8072 8.05581 25.5989 8.56629C25.5833 8.60797 25.5155 8.64443 25.4687 8.66006C25.4114 8.67568 25.3488 8.66527 25.2863 8.66527C20.6867 8.66527 16.0872 8.66527 11.4876 8.67048C11.2688 8.67048 11.1698 8.60276 11.0969 8.3996C10.9354 7.94121 10.7427 7.48802 10.5551 7.00879Z" fill="white"/>
<path d="M11.8834 10.3369C16.2277 10.3369 20.5408 10.3369 24.8903 10.3369C24.7861 10.5974 24.6924 10.8422 24.5934 11.0818C24.4684 11.3839 24.4111 11.7954 24.1871 11.9517C23.9683 12.1028 23.5672 11.9934 23.2495 11.9934C19.7698 11.9934 16.2954 11.9934 12.8158 11.9986C12.6074 11.9986 12.5137 11.9413 12.4408 11.7434C12.2741 11.2798 12.0761 10.8214 11.8834 10.3369Z" fill="white"/>
<path d="M10.8831 19.5051C10.8831 18.1038 11.9926 16.9995 13.3991 16.9995C14.8003 16.9995 15.8942 18.1038 15.8942 19.5207C15.8942 20.9167 14.7847 22.0002 13.3626 22.0002C11.9926 22.0002 10.8831 20.8803 10.8831 19.5051Z" fill="white"/>
<path d="M19.2179 19.4999C19.2231 18.0778 20.3378 16.9943 21.7912 16.9995C23.156 17.0047 24.2291 18.1351 24.2291 19.552C24.2239 20.9324 23.0987 22.0054 21.6662 22.0002C20.3222 21.995 19.2126 20.8646 19.2179 19.4999Z" fill="white"/>
</svg>
