<svg width="14" height="15" viewBox="0 0 14 15" fill="none" xmlns="http://www.w3.org/2000/svg">
<path d="M13.7301 6.95965C13.6905 6.86333 13.6324 6.77569 13.5591 6.70165L11.1891 4.33265C11.1163 4.25685 11.0292 4.19634 10.9327 4.15465C10.8362 4.11297 10.7324 4.09095 10.6273 4.08988C10.5222 4.08882 10.418 4.10873 10.3207 4.14846C10.2234 4.18818 10.135 4.24692 10.0607 4.32123C9.98641 4.39554 9.92767 4.48393 9.88795 4.58122C9.84822 4.67851 9.82831 4.78275 9.82937 4.88784C9.83044 4.99292 9.85246 5.09674 9.89414 5.1932C9.93583 5.28967 9.99634 5.37686 10.0721 5.44965L11.0931 6.47065H6.68014C6.47062 6.47065 6.26968 6.55388 6.12152 6.70203C5.97337 6.85019 5.89014 7.05113 5.89014 7.26065C5.89014 7.47017 5.97337 7.67111 6.12152 7.81926C6.26968 7.96741 6.47062 8.05065 6.68014 8.05065H11.0931L10.0711 9.07265C9.99534 9.14544 9.93483 9.23262 9.89314 9.32909C9.85146 9.42556 9.82944 9.52937 9.82837 9.63446C9.82731 9.73954 9.84723 9.84378 9.88695 9.94107C9.92667 10.0384 9.98541 10.1268 10.0597 10.2011C10.134 10.2754 10.2224 10.3341 10.3197 10.3738C10.417 10.4136 10.5212 10.4335 10.6263 10.4324C10.7314 10.4313 10.8352 10.4093 10.9317 10.3676C11.0282 10.326 11.1153 10.2654 11.1881 10.1896L13.5561 7.82065C13.6298 7.74692 13.6879 7.65919 13.7271 7.56265C13.8077 7.36993 13.8088 7.15316 13.7301 6.95965Z" fill="#848383"/>
<path d="M8.54715 8.87798C8.40491 8.88875 8.27265 8.95515 8.17905 9.06279C8.08545 9.17043 8.03806 9.31063 8.04715 9.45298V12.326H6.03315V3.13398C6.03728 3.01662 6.00512 2.90084 5.94105 2.80242C5.87699 2.70399 5.78414 2.62772 5.67515 2.58398L3.92915 1.98398H8.04415V4.85598C8.03513 4.92736 8.0414 4.99985 8.06256 5.06861C8.08371 5.13738 8.11926 5.20086 8.16683 5.25482C8.21441 5.30879 8.27293 5.35202 8.3385 5.38163C8.40408 5.41123 8.4752 5.42655 8.54715 5.42655C8.61909 5.42655 8.69022 5.41123 8.75579 5.38163C8.82136 5.35202 8.87988 5.30879 8.92746 5.25482C8.97504 5.20086 9.01058 5.13738 9.03174 5.06861C9.05289 4.99985 9.05917 4.92736 9.05015 4.85598V1.40898C9.05921 1.26615 9.01141 1.12552 8.91718 1.0178C8.82294 0.910073 8.68992 0.843996 8.54715 0.833984H0.499147C0.482936 0.836662 0.466906 0.840335 0.451147 0.844984C0.428152 0.847881 0.405416 0.852562 0.383147 0.858984C0.330848 0.875429 0.28179 0.900804 0.238147 0.933984C0.227147 0.933984 0.213147 0.933984 0.199147 0.947984C0.185147 0.961984 0.199147 0.957984 0.193147 0.960984C0.136533 1.01188 0.0909313 1.07381 0.0591469 1.14298C0.0521469 1.15798 0.0511469 1.17498 0.0451469 1.19098C0.0266361 1.23394 0.0132116 1.27891 0.00514689 1.32498C0.00412469 1.34164 0.00412469 1.35833 0.00514689 1.37498C0.00614689 1.38698 -0.000853111 1.39698 -0.000853111 1.40898V12.9C-0.00670148 13.025 0.0295189 13.1484 0.102024 13.2505C0.17453 13.3525 0.279139 13.4274 0.399147 13.463L5.42715 14.612C5.45991 14.6197 5.49349 14.6234 5.52715 14.623C5.6462 14.6221 5.76038 14.5756 5.84615 14.493C5.90529 14.4353 5.95209 14.3662 5.98372 14.2899C6.01535 14.2135 6.03114 14.1316 6.03015 14.049V13.474H8.54715C8.68938 13.4632 8.82164 13.3968 8.91525 13.2892C9.00885 13.1815 9.05624 13.0413 9.04715 12.899V9.45298C9.05624 9.31063 9.00885 9.17043 8.91525 9.06279C8.82164 8.95515 8.68938 8.88875 8.54715 8.87798Z" fill="#848383"/>
</svg>
