<svg width="15" height="21" viewBox="0 0 15 21" fill="none" xmlns="http://www.w3.org/2000/svg">
<path d="M11.9141 6.09375H11.4062V4.0625C11.4062 1.82203 9.58422 0 7.34375 0C5.10328 0 3.28125 1.82203 3.28125 4.0625V6.09375H2.77344C1.93385 6.09375 1.25 6.77693 1.25 7.61719V14.7266C1.25 15.5668 1.93385 16.25 2.77344 16.25H11.9141C12.7536 16.25 13.4375 15.5668 13.4375 14.7266V7.61719C13.4375 6.77693 12.7536 6.09375 11.9141 6.09375ZM4.63542 4.0625C4.63542 2.56885 5.8501 1.35417 7.34375 1.35417C8.8374 1.35417 10.0521 2.56885 10.0521 4.0625V6.09375H4.63542V4.0625ZM8.02083 11.3222V12.8646C8.02083 13.2383 7.71818 13.5417 7.34375 13.5417C6.96932 13.5417 6.66667 13.2383 6.66667 12.8646V11.3222C6.2638 11.0872 5.98958 10.6553 5.98958 10.1562C5.98958 9.40943 6.59693 8.80208 7.34375 8.80208C8.09057 8.80208 8.69792 9.40943 8.69792 10.1562C8.69792 10.6553 8.4237 11.0872 8.02083 11.3222Z" fill="#848383"/>
<rect y="17.5" width="15" height="3" rx="1.5" fill="#848383"/>
<circle cx="2.49951" cy="18.999" r="0.5" fill="white"/>
<circle cx="4.5" cy="18.999" r="0.5" fill="white"/>
<circle cx="6.49902" cy="18.999" r="0.5" fill="white"/>
<circle cx="8.5" cy="18.999" r="0.5" fill="white"/>
<circle cx="10.4995" cy="18.999" r="0.5" fill="white"/>
<circle cx="12.499" cy="18.999" r="0.5" fill="white"/>
</svg>
