<svg width="282" height="114" viewBox="0 0 282 114" fill="none" xmlns="http://www.w3.org/2000/svg">
<path d="M148.669 87.8617L136.713 68.2364L125.36 87.8617H109.599L128.923 58.3936L111.834 32.5486H127.836L137.316 48.3696L146.495 32.5486H162.376L145.468 58.6955L164.611 87.8617H148.669Z" fill="#01BFE8"/>
<path d="M204.827 87.8617L183.753 54.227L183.572 54.2874L183.994 87.8617H170.468V32.5486H182.666L204.042 67.3306L204.163 67.2099L203.559 32.609H217.086V87.9221H204.827V87.8617Z" fill="#01BFE8"/>
<path d="M282 67.1494C280.37 73.671 276.988 78.9246 271.795 82.91C266.662 86.8954 260.744 88.8882 254.042 88.8882C245.95 88.8882 239.066 86.1104 233.45 80.555C227.774 74.9995 224.936 68.1759 224.936 60.0843C224.936 52.053 227.774 45.2294 233.39 39.674C239.006 34.1789 245.829 31.4615 253.921 31.4615C264.428 31.4615 272.52 35.8093 278.256 44.4444C280.249 47.4637 281.517 50.483 282 53.5023H267.206C264.73 47.1014 260.322 43.8406 253.86 43.8406C249.513 43.8406 245.89 45.471 243.112 48.6714C240.394 51.8115 239.066 55.5554 239.066 59.9635C239.066 64.432 240.394 68.2363 243.112 71.3764C245.95 74.758 249.573 76.3884 253.921 76.3884C259.959 76.3884 264.367 73.2483 267.206 67.0286H282V67.1494Z" fill="#01BFE8"/>
<path d="M109.902 109.358L112.257 98.3077C112.377 98.3077 112.559 98.3077 112.861 98.3681C113.102 98.4285 113.344 98.4285 113.464 98.4285C113.585 98.4285 113.827 98.4285 114.068 98.3681C114.37 98.3077 114.551 98.3077 114.672 98.3077L113.585 103.38C114.431 102.595 115.336 101.75 116.242 100.844C117.269 99.8777 118.114 99.0323 118.839 98.3077C119.141 98.3681 119.382 98.3681 119.684 98.4285C119.805 98.4285 119.926 98.4285 120.107 98.3681C120.288 98.3681 120.409 98.3077 120.59 98.3077V98.4285L117.329 101.206L115.457 102.897L118.476 109.117L118.416 109.358C118.295 109.358 118.114 109.358 117.812 109.298C117.571 109.237 117.329 109.237 117.208 109.237C117.088 109.237 116.846 109.237 116.604 109.298C116.303 109.358 116.121 109.358 116.001 109.358L113.464 104.225L112.377 109.358C112.257 109.358 112.015 109.358 111.774 109.298C111.532 109.237 111.291 109.237 111.17 109.237C111.049 109.237 110.807 109.237 110.566 109.298C110.264 109.358 110.022 109.358 109.902 109.358Z" fill="#77787B"/>
<path d="M127.112 105.433H122.522L122.462 105.674C122.281 106.52 122.341 107.184 122.583 107.607C122.824 108.15 123.368 108.392 124.153 108.392C124.455 108.392 124.817 108.331 125.179 108.211C125.542 108.09 125.843 107.909 126.206 107.667L126.387 107.788L125.843 108.694C124.998 109.177 124.213 109.418 123.368 109.418C122.039 109.418 121.133 109.056 120.59 108.271C120.046 107.546 119.926 106.459 120.228 105.131C120.469 103.984 121.013 103.078 121.798 102.353C122.583 101.629 123.549 101.266 124.696 101.266C125.843 101.266 126.628 101.629 127.051 102.293C127.413 102.897 127.534 103.742 127.293 104.829L127.112 105.433ZM124.636 97.8244H126.145L127.534 100.662H126.628L125.179 99.0924L123.066 100.662H122.16L124.636 97.8244ZM122.643 104.648H124.998C125.119 103.984 125.179 103.44 125.179 103.078C125.119 102.414 124.938 102.112 124.455 102.112C123.911 102.112 123.488 102.414 123.126 103.078C123.005 103.501 122.824 103.984 122.643 104.648ZM130.131 95.5297C130.312 95.4089 130.493 95.4089 130.735 95.4089C130.916 95.4089 131.097 95.4693 131.218 95.5901C131.339 95.7109 131.339 95.892 131.339 96.0732C131.278 96.3147 131.157 96.4959 130.916 96.677C130.735 96.7978 130.493 96.9186 130.312 97.0393L127.897 98.3074H126.991L129.587 95.9524C129.769 95.7712 130.01 95.5901 130.131 95.5297Z" fill="#77787B"/>
<path d="M131.822 102.595L130.855 107.185C130.735 107.728 130.735 108.09 130.735 108.332C130.795 108.573 130.976 108.694 131.338 108.694C131.459 108.694 131.52 108.694 131.58 108.694C131.64 108.694 131.822 108.634 132.063 108.573L131.942 109.177C131.278 109.419 130.674 109.54 130.191 109.54C129.406 109.54 128.923 109.298 128.682 108.815C128.5 108.392 128.5 107.788 128.682 106.943L129.587 102.656H128.5C128.561 102.535 128.621 102.354 128.621 102.112L128.682 101.931C128.682 101.871 128.682 101.81 128.742 101.75C128.742 101.689 128.742 101.629 128.742 101.569H129.829L130.191 99.7571C130.916 99.5156 131.761 99.1533 132.607 98.791L132.003 101.629H133.392C133.331 101.871 133.271 101.991 133.21 102.112C133.21 102.173 133.15 102.354 133.15 102.656H131.822V102.595Z" fill="#77787B"/>
<path d="M137.8 109.359L139.43 101.508C139.611 101.508 139.793 101.569 139.913 101.569C140.034 101.569 140.276 101.569 140.457 101.569C140.638 101.569 140.819 101.569 141.061 101.569C141.302 101.569 141.423 101.569 141.544 101.508L141.302 102.716C141.725 102.293 142.208 101.992 142.631 101.75C143.114 101.508 143.597 101.327 144.08 101.327C145.046 101.327 145.65 101.629 145.892 102.233C146.133 102.777 146.133 103.501 145.892 104.588L144.865 109.298C144.744 109.298 144.623 109.298 144.442 109.238C144.08 109.177 143.838 109.177 143.778 109.177C143.657 109.177 143.476 109.177 143.174 109.238C142.933 109.298 142.751 109.298 142.631 109.298L143.476 105.252C143.657 104.407 143.718 103.743 143.657 103.38C143.536 102.897 143.235 102.656 142.751 102.656C142.148 102.656 141.665 103.018 141.302 103.743C141.121 104.165 140.94 104.769 140.759 105.554L139.974 109.298C139.853 109.298 139.672 109.298 139.43 109.238C139.189 109.177 139.008 109.177 138.887 109.177C138.766 109.177 138.585 109.177 138.343 109.238C138.223 109.298 137.981 109.359 137.8 109.359Z" fill="#77787B"/>
<path d="M150.118 109.479C149.031 109.479 148.186 109.116 147.703 108.392C147.22 107.667 147.099 106.761 147.341 105.554C147.643 104.286 148.126 103.259 148.971 102.474C149.756 101.689 150.722 101.327 151.87 101.327C152.957 101.327 153.802 101.689 154.285 102.353C154.768 103.018 154.949 103.984 154.647 105.191C154.406 106.459 153.862 107.486 153.017 108.271C152.232 109.116 151.266 109.479 150.118 109.479ZM151.87 97.8244H153.319L154.708 100.662H153.802L152.353 99.0924L150.179 100.662H149.273L151.87 97.8244ZM151.749 102.112C151.205 102.112 150.722 102.474 150.3 103.138C149.998 103.682 149.696 104.527 149.454 105.554C149.273 106.339 149.213 107.003 149.273 107.546C149.333 108.331 149.635 108.754 150.179 108.754C150.722 108.754 151.205 108.331 151.628 107.546C151.99 106.882 152.232 106.037 152.473 105.01C152.655 104.165 152.715 103.501 152.594 103.018C152.534 102.414 152.232 102.112 151.749 102.112ZM157.485 95.5297C157.667 95.4089 157.848 95.4089 158.089 95.4089C158.27 95.4089 158.452 95.4693 158.572 95.5901C158.693 95.7109 158.693 95.892 158.633 96.0732C158.572 96.3147 158.452 96.4959 158.21 96.677C158.029 96.7978 157.787 96.9186 157.546 97.0393L155.13 98.3074H154.225L156.821 95.9524C157.123 95.7712 157.304 95.5901 157.485 95.5297Z" fill="#77787B"/>
<path d="M155.251 109.358L156.881 101.508C157.002 101.508 157.244 101.508 157.546 101.568C157.848 101.568 158.029 101.628 158.029 101.628C158.21 101.628 158.391 101.628 158.633 101.628C158.874 101.628 158.995 101.628 159.116 101.568L157.485 109.418C157.365 109.418 157.183 109.418 157.063 109.358C156.7 109.297 156.459 109.297 156.398 109.297C156.278 109.297 156.096 109.297 155.795 109.358C155.553 109.358 155.372 109.358 155.251 109.358ZM157.365 98.6092C157.425 98.2468 157.606 97.9449 157.908 97.7034C158.21 97.4618 158.512 97.3411 158.874 97.3411C159.236 97.3411 159.478 97.4618 159.72 97.7034C159.901 97.9449 160.021 98.2468 159.901 98.6092C159.84 98.9715 159.659 99.2734 159.297 99.5149C158.995 99.7565 158.633 99.8773 158.331 99.8773C157.968 99.8773 157.727 99.7565 157.546 99.5149C157.365 99.213 157.304 98.9111 157.365 98.6092Z" fill="#77787B"/>
<path d="M164.309 109.359L165.939 101.508C166.121 101.508 166.302 101.569 166.423 101.569C166.543 101.569 166.785 101.569 166.966 101.569C167.147 101.569 167.328 101.569 167.57 101.569C167.811 101.569 167.932 101.569 168.053 101.508L167.811 102.716C168.234 102.293 168.717 101.992 169.14 101.75C169.623 101.508 170.106 101.327 170.589 101.327C171.555 101.327 172.159 101.629 172.401 102.233C172.642 102.777 172.642 103.501 172.401 104.588L171.374 109.298C171.253 109.298 171.133 109.298 170.951 109.238C170.589 109.177 170.348 109.177 170.287 109.177C170.166 109.177 169.985 109.177 169.683 109.238C169.442 109.298 169.261 109.298 169.14 109.298L169.985 105.252C170.166 104.407 170.227 103.743 170.166 103.38C170.046 102.897 169.744 102.656 169.261 102.656C168.657 102.656 168.174 103.018 167.811 103.743C167.63 104.165 167.449 104.769 167.268 105.554L166.483 109.298C166.362 109.298 166.181 109.298 165.939 109.238C165.698 109.177 165.517 109.177 165.396 109.177C165.275 109.177 165.094 109.177 164.852 109.238C164.671 109.298 164.49 109.359 164.309 109.359Z" fill="#77787B"/>
<path d="M178.198 97.1005L176.99 102.656C177.352 102.354 177.775 102.052 178.258 101.811C178.802 101.509 179.285 101.388 179.647 101.388C180.372 101.388 180.975 101.629 181.338 102.112C181.579 102.354 181.7 102.656 181.7 102.958C181.7 103.26 181.7 103.682 181.579 104.166L180.492 109.359C180.372 109.359 180.251 109.359 180.07 109.298C179.707 109.238 179.466 109.238 179.405 109.238C179.285 109.238 179.104 109.238 178.802 109.298C178.56 109.359 178.379 109.359 178.258 109.359L179.104 105.313C179.285 104.468 179.345 103.803 179.285 103.441C179.164 102.958 178.862 102.716 178.379 102.716C177.835 102.716 177.352 103.018 176.99 103.622C176.748 104.045 176.567 104.588 176.447 105.253L176.386 105.615L175.601 109.359C175.48 109.359 175.299 109.359 175.058 109.298C174.816 109.238 174.635 109.238 174.514 109.238C174.393 109.238 174.212 109.238 173.971 109.298C173.79 109.298 173.548 109.359 173.367 109.359L175.963 97.1005C176.084 97.1005 176.265 97.1005 176.507 97.1609C176.748 97.1609 176.93 97.2212 176.99 97.2212C177.111 97.2212 177.292 97.2212 177.594 97.1609C177.896 97.1005 178.077 97.1005 178.198 97.1005Z" fill="#77787B"/>
<path d="M190.577 101.81C190.758 101.75 190.879 101.75 190.939 101.75C190.999 101.75 191.06 101.689 191.181 101.569C191.301 101.448 191.362 101.327 191.422 101.146C191.483 100.904 191.483 100.783 191.422 100.723C191.422 100.663 191.301 100.663 191.181 100.602C190.999 100.602 190.939 100.542 190.939 100.542L191.12 99.5758C191.301 99.6362 191.483 99.6362 191.603 99.6362L192.328 99.5758H192.811L192.751 99.8173L192.57 100.542C192.509 100.783 192.449 101.025 192.328 101.206C192.207 101.387 192.026 101.629 191.785 101.87C191.603 102.052 191.422 102.172 191.241 102.233C191.06 102.293 190.818 102.354 190.516 102.354L189.007 109.419C188.644 109.358 188.343 109.358 187.98 109.298C187.859 109.298 187.678 109.298 187.497 109.358C187.316 109.358 187.135 109.419 186.954 109.419L187.195 108.211C186.773 108.573 186.471 108.875 186.289 108.996C185.746 109.358 185.202 109.539 184.599 109.539C184.176 109.539 183.814 109.479 183.512 109.298C183.21 109.117 182.908 108.875 182.787 108.573C182.666 108.332 182.606 108.03 182.606 107.667C182.606 107.305 182.666 106.943 182.727 106.581L182.847 106.037L183.814 101.569L184.84 101.629C184.961 101.629 185.202 101.629 185.444 101.569C185.686 101.508 185.867 101.508 185.927 101.508L184.961 105.977C184.84 106.46 184.78 106.762 184.78 106.882C184.78 107.003 184.78 107.124 184.84 107.305C184.901 107.607 184.961 107.788 185.142 107.909C185.263 108.03 185.504 108.151 185.746 108.151C186.35 108.151 186.772 107.849 187.074 107.305C187.256 107.003 187.437 106.46 187.558 105.735L188.463 101.569C188.644 101.569 188.765 101.629 188.946 101.629C189.128 101.629 189.309 101.629 189.49 101.629C189.671 101.629 189.852 101.629 190.094 101.629C190.335 101.629 190.456 101.629 190.577 101.569V101.81ZM190.094 98.3077H190.698C190.456 98.9115 190.154 99.3946 189.913 99.6965C189.49 100.119 189.067 100.361 188.584 100.361C188.403 100.361 188.222 100.3 188.041 100.24C187.98 100.24 187.859 100.119 187.618 99.9985C187.376 99.8777 187.195 99.7569 187.074 99.6965C186.833 99.5758 186.652 99.5154 186.531 99.5154C186.289 99.5154 186.108 99.6362 185.987 99.8173C185.867 99.9985 185.746 100.18 185.746 100.3H185.142C185.263 99.7569 185.565 99.2739 186.048 98.8512C186.41 98.4888 186.833 98.3077 187.256 98.3077C187.497 98.3077 187.799 98.3681 188.041 98.5492C188.222 98.67 188.403 98.7304 188.463 98.7908C188.584 98.9115 188.765 98.9719 188.886 99.0323C189.007 99.0927 189.128 99.0927 189.248 99.0927C189.429 99.0927 189.611 99.0323 189.792 98.8512C189.792 98.7908 189.913 98.6096 190.094 98.3077Z" fill="#77787B"/>
<path d="M190.758 109.359L192.388 101.508C192.57 101.508 192.751 101.569 192.871 101.569C192.992 101.569 193.234 101.569 193.415 101.569C193.596 101.569 193.777 101.569 194.019 101.569C194.26 101.569 194.381 101.569 194.502 101.508L194.26 102.716C194.683 102.293 195.166 101.992 195.589 101.75C196.072 101.508 196.555 101.327 197.038 101.327C198.004 101.327 198.608 101.629 198.85 102.233C199.091 102.777 199.091 103.501 198.85 104.588L197.823 109.298C197.702 109.298 197.581 109.298 197.4 109.238C197.038 109.177 196.796 109.177 196.736 109.177C196.615 109.177 196.434 109.177 196.132 109.238C195.891 109.298 195.71 109.298 195.589 109.298L196.434 105.252C196.615 104.407 196.676 103.743 196.615 103.38C196.495 102.897 196.193 102.656 195.71 102.656C195.106 102.656 194.623 103.018 194.26 103.743C194.079 104.165 193.898 104.769 193.717 105.554L192.932 109.298C192.811 109.298 192.63 109.298 192.388 109.238C192.147 109.177 191.966 109.177 191.845 109.177C191.724 109.177 191.543 109.177 191.301 109.238C191.12 109.298 190.939 109.359 190.758 109.359Z" fill="#77787B"/>
<path d="M208.39 101.448L208.209 102.173L206.76 102.112C207.243 102.595 207.424 103.199 207.243 103.924C207.062 104.83 206.579 105.494 205.854 105.917C205.19 106.339 204.344 106.52 203.318 106.52H203.076C202.835 106.52 202.654 106.581 202.593 106.641C202.412 106.762 202.352 106.943 202.291 107.064C202.231 107.366 202.291 107.547 202.533 107.728C202.714 107.849 203.076 107.909 203.439 107.909L204.828 107.97C205.673 107.97 206.216 108.151 206.518 108.574C206.76 108.936 206.82 109.419 206.7 110.083C206.458 111.17 205.854 112.076 204.828 112.68C203.922 113.223 202.895 113.525 201.748 113.525C200.903 113.525 200.238 113.404 199.755 113.102C199.091 112.74 198.849 112.197 199.031 111.412C199.091 110.989 199.333 110.627 199.634 110.325C199.936 110.023 200.299 109.781 200.721 109.6L200.963 109.419L200.903 109.298C200.419 109.117 200.238 108.694 200.359 108.09C200.419 107.728 200.661 107.366 200.963 107.064C201.325 106.762 201.627 106.52 201.929 106.46L202.171 106.4C200.842 106.098 200.359 105.192 200.661 103.803C200.842 102.958 201.325 102.293 201.989 101.931C202.714 101.508 203.62 101.327 204.767 101.327C204.948 101.327 205.25 101.327 205.673 101.388C206.096 101.388 206.337 101.448 206.398 101.448H208.39ZM200.721 110.445C200.661 110.506 200.601 110.627 200.601 110.687C200.54 110.808 200.54 110.929 200.48 111.049C200.359 111.653 200.48 112.076 200.842 112.378C201.204 112.68 201.688 112.861 202.291 112.861C202.895 112.861 203.378 112.68 203.861 112.317C204.345 111.955 204.586 111.532 204.707 111.049C204.828 110.385 204.707 109.962 204.224 109.721C203.922 109.6 203.439 109.54 202.654 109.54C202.05 109.54 201.627 109.6 201.386 109.781C201.144 109.962 200.842 110.144 200.721 110.445ZM202.895 104.105C202.774 104.709 202.774 105.192 202.895 105.494C203.016 105.796 203.197 105.917 203.559 105.917C204.103 105.917 204.465 105.554 204.767 104.769C204.888 104.467 205.009 104.165 205.069 103.743C205.19 103.26 205.19 102.897 205.19 102.595C205.13 102.173 204.888 101.931 204.465 101.931C204.043 101.931 203.62 102.173 203.378 102.716C203.137 103.078 203.016 103.562 202.895 104.105Z" fill="#77787B"/>
<path d="M220.951 102.112L219.984 103.803H219.622C219.683 103.32 219.562 102.958 219.381 102.595C219.139 102.294 218.777 102.112 218.354 102.112C217.69 102.112 217.086 102.475 216.543 103.26C216.12 103.864 215.878 104.528 215.697 105.313C215.456 106.339 215.516 107.124 215.757 107.607C216.059 108.151 216.603 108.453 217.448 108.453C217.75 108.453 218.052 108.392 218.414 108.272C218.777 108.151 219.018 107.97 219.26 107.728L219.441 107.97L218.837 108.936C218.596 109.117 218.233 109.298 217.811 109.359C217.328 109.479 216.965 109.54 216.603 109.54C215.335 109.54 214.369 109.177 213.765 108.513C213.101 107.789 212.919 106.822 213.221 105.554C213.463 104.286 214.067 103.26 215.033 102.535C215.939 101.75 217.086 101.388 218.354 101.388C218.837 101.388 219.32 101.448 219.803 101.569C220.226 101.69 220.649 101.871 220.951 102.112Z" fill="#77787B"/>
<path d="M225.479 97.1005L224.272 102.656C224.634 102.354 225.057 102.052 225.54 101.811C226.083 101.509 226.566 101.388 226.929 101.388C227.653 101.388 228.257 101.629 228.62 102.112C228.861 102.354 228.982 102.656 228.982 102.958C228.982 103.26 228.982 103.682 228.861 104.166L227.774 109.359C227.653 109.359 227.533 109.359 227.351 109.298C226.989 109.238 226.748 109.238 226.687 109.238C226.566 109.238 226.385 109.238 226.083 109.298C225.842 109.359 225.661 109.359 225.54 109.359L226.385 105.313C226.566 104.468 226.627 103.803 226.566 103.441C226.446 102.958 226.144 102.716 225.661 102.716C225.117 102.716 224.634 103.018 224.272 103.622C224.03 104.045 223.849 104.588 223.728 105.253L223.668 105.615L222.883 109.359C222.762 109.359 222.581 109.359 222.339 109.298C222.098 109.238 221.917 109.238 221.796 109.238C221.675 109.238 221.494 109.238 221.252 109.298C221.071 109.298 220.83 109.359 220.649 109.359L223.245 97.1005C223.366 97.1005 223.547 97.1005 223.789 97.1609C224.03 97.1609 224.211 97.2212 224.272 97.2212C224.393 97.2212 224.574 97.2212 224.876 97.1609C225.178 97.1005 225.359 97.1005 225.479 97.1005Z" fill="#77787B"/>
<path d="M237.859 101.568L236.228 109.418C235.866 109.358 235.564 109.358 235.202 109.298C235.081 109.298 234.9 109.298 234.718 109.358C234.537 109.358 234.356 109.418 234.175 109.418L234.417 108.211C233.994 108.573 233.692 108.875 233.511 108.996C232.967 109.358 232.424 109.539 231.82 109.539C231.397 109.539 231.035 109.479 230.733 109.298C230.431 109.116 230.129 108.875 230.008 108.573C229.888 108.331 229.827 108.029 229.827 107.667C229.827 107.305 229.888 106.943 229.948 106.58L230.069 106.037L231.035 101.568L232.062 101.629C232.182 101.629 232.424 101.629 232.665 101.568C232.967 101.568 233.088 101.508 233.148 101.508L232.182 105.976C232.062 106.459 232.001 106.761 232.001 106.882C232.001 107.003 232.001 107.124 232.062 107.305C232.122 107.607 232.182 107.788 232.363 107.909C232.484 108.029 232.726 108.15 232.967 108.15C233.571 108.15 233.994 107.848 234.296 107.305C234.477 107.003 234.658 106.459 234.779 105.735L235.685 101.568C235.866 101.568 235.987 101.629 236.168 101.629C236.349 101.629 236.53 101.629 236.711 101.629C236.892 101.629 237.074 101.629 237.315 101.629C237.617 101.568 237.738 101.568 237.859 101.568Z" fill="#77787B"/>
<path d="M237.738 113.464L240.697 109.298L239.066 101.508C239.187 101.508 239.429 101.508 239.73 101.568C240.032 101.568 240.214 101.629 240.274 101.629C240.395 101.629 240.636 101.629 240.938 101.568C241.24 101.568 241.421 101.508 241.482 101.508C241.602 102.293 241.663 102.957 241.784 103.44C241.844 103.923 242.025 104.95 242.387 106.52L243.354 104.889C243.716 104.346 243.957 103.923 244.078 103.621C244.441 102.957 244.863 102.293 245.286 101.508C245.407 101.508 245.527 101.568 245.588 101.568C245.709 101.568 245.769 101.568 245.89 101.568H246.131C246.192 101.568 246.252 101.568 246.373 101.568C246.494 101.568 246.554 101.508 246.614 101.508L244.199 105.191C243.172 106.761 242.327 108.09 241.542 109.298C240.817 110.505 239.972 111.894 239.066 113.404C238.945 113.404 238.825 113.343 238.764 113.343C238.644 113.343 238.583 113.343 238.402 113.343C238.281 113.343 238.16 113.343 238.04 113.343C237.919 113.404 237.798 113.464 237.738 113.464Z" fill="#77787B"/>
<path d="M253.619 105.433H249.03L248.969 105.674C248.788 106.52 248.849 107.184 249.09 107.607C249.332 108.15 249.875 108.392 250.66 108.392C250.962 108.392 251.324 108.331 251.687 108.211C252.049 108.09 252.351 107.909 252.713 107.667L252.894 107.788L252.351 108.694C251.506 109.177 250.721 109.418 249.875 109.418C248.547 109.418 247.641 109.056 247.097 108.271C246.554 107.546 246.433 106.459 246.735 105.131C246.977 103.984 247.52 103.078 248.305 102.353C249.09 101.629 250.056 101.266 251.204 101.266C252.351 101.266 253.136 101.629 253.559 102.293C253.921 102.897 254.042 103.742 253.8 104.829L253.619 105.433ZM251.083 97.8244H252.593L253.981 100.662H253.076L251.626 99.0924L249.513 100.662H248.607L251.083 97.8244ZM249.151 104.648H251.506C251.626 103.984 251.687 103.44 251.687 103.078C251.626 102.414 251.445 102.112 250.962 102.112C250.419 102.112 249.996 102.414 249.634 103.078C249.453 103.501 249.271 103.984 249.151 104.648ZM256.638 95.5297C256.82 95.4089 257.001 95.4089 257.242 95.4089C257.423 95.4089 257.605 95.4693 257.725 95.5901C257.846 95.7109 257.846 95.892 257.846 96.0732C257.786 96.3147 257.665 96.4959 257.423 96.677C257.242 96.7978 257.001 96.9186 256.82 97.0393L254.404 98.3074H253.498L256.095 95.9524C256.276 95.7712 256.457 95.5901 256.638 95.5297Z" fill="#77787B"/>
<path d="M254.163 109.359L255.793 101.508C255.974 101.508 256.155 101.569 256.276 101.569C256.397 101.569 256.638 101.569 256.82 101.569C257.001 101.569 257.182 101.569 257.423 101.569C257.665 101.569 257.786 101.569 257.907 101.508L257.665 102.716C258.088 102.293 258.571 101.992 258.993 101.75C259.477 101.508 259.96 101.327 260.443 101.327C261.409 101.327 262.013 101.629 262.254 102.233C262.496 102.777 262.496 103.501 262.254 104.588L261.228 109.298C261.107 109.298 260.986 109.298 260.805 109.238C260.443 109.177 260.201 109.177 260.141 109.177C260.02 109.177 259.839 109.177 259.537 109.238C259.295 109.298 259.114 109.298 258.993 109.298L259.839 105.252C260.02 104.407 260.08 103.743 260.02 103.38C259.899 102.897 259.597 102.656 259.114 102.656C258.51 102.656 258.027 103.018 257.665 103.743C257.484 104.165 257.303 104.769 257.121 105.554L256.336 109.298C256.216 109.298 256.035 109.298 255.793 109.238C255.551 109.177 255.37 109.177 255.25 109.177C255.129 109.177 254.948 109.177 254.706 109.238C254.585 109.298 254.344 109.359 254.163 109.359Z" fill="#77787B"/>
<path d="M277.109 99.697L275.056 109.419C274.694 109.359 274.392 109.359 274.029 109.298C273.909 109.298 273.727 109.298 273.486 109.359C273.305 109.359 273.124 109.419 272.942 109.419L273.244 107.97C272.942 108.453 272.58 108.815 272.157 109.117C271.735 109.419 271.252 109.54 270.708 109.54C269.621 109.54 268.897 109.117 268.534 108.272C268.232 107.547 268.172 106.641 268.414 105.434C268.655 104.347 269.078 103.38 269.742 102.656C270.467 101.81 271.372 101.388 272.339 101.388C272.882 101.388 273.305 101.509 273.607 101.69C273.909 101.871 274.15 102.173 274.271 102.595L274.875 99.697H273.244L273.486 98.61H275.116L275.418 97.1608C275.539 97.1608 275.72 97.1608 275.962 97.2212C276.203 97.2815 276.384 97.2815 276.505 97.2815C276.686 97.2815 276.807 97.2815 277.049 97.2212C277.23 97.2212 277.471 97.1608 277.653 97.1608L277.351 98.61H277.894L277.653 99.697H277.109ZM272.942 102.475C272.339 102.475 271.855 102.837 271.433 103.622C271.131 104.105 270.95 104.769 270.769 105.554C270.587 106.279 270.527 106.883 270.587 107.366C270.648 108.091 270.95 108.513 271.554 108.513C272.157 108.513 272.641 108.091 273.124 107.306C273.426 106.762 273.667 106.158 273.788 105.373C273.969 104.649 273.969 104.045 273.909 103.622C273.788 102.837 273.486 102.475 272.942 102.475Z" fill="#77787B"/>
<path d="M277.23 109.358L278.86 101.508C278.981 101.508 279.223 101.508 279.525 101.568C279.827 101.568 280.008 101.628 280.008 101.628C280.189 101.628 280.37 101.628 280.612 101.628C280.853 101.628 280.974 101.628 281.095 101.568L279.464 109.418C279.343 109.418 279.162 109.418 279.042 109.358C278.679 109.297 278.438 109.297 278.377 109.297C278.257 109.297 278.075 109.297 277.773 109.358C277.592 109.358 277.351 109.358 277.23 109.358ZM279.404 98.6092C279.464 98.2468 279.645 97.9449 279.947 97.7034C280.249 97.4618 280.551 97.3411 280.913 97.3411C281.276 97.3411 281.517 97.4618 281.759 97.7034C281.94 97.9449 282.061 98.2468 281.94 98.6092C281.88 98.9715 281.699 99.2734 281.336 99.5149C281.034 99.7565 280.672 99.8773 280.37 99.8773C280.008 99.8773 279.766 99.7565 279.585 99.5149C279.343 99.213 279.283 98.9111 279.404 98.6092Z" fill="#77787B"/>
<path d="M86.0493 0.120771C85.989 0.060386 85.8682 0 85.7474 0C85.687 0 85.687 0 85.687 0C85.687 0 85.687 0 85.6266 0C84.7812 0.120771 84.5397 1.87195 84.5397 1.87195C84.3585 2.59658 84.2982 3.3212 84.2982 4.04583C84.2982 5.07238 84.2378 6.15932 84.1774 7.18588C84.1774 7.42742 84.117 7.54819 83.9358 7.66896C83.0904 8.27282 82.245 8.93706 81.3393 9.54091C79.4069 10.9902 77.4746 12.379 75.5423 13.8283C75.1196 14.1302 74.9988 14.8548 75.3007 15.3379C75.4215 15.2775 75.6026 15.2171 75.7234 15.1568C78.0181 14.1302 80.3127 13.164 82.547 12.1375C83.0301 11.8959 83.5131 12.0167 83.9962 12.0167C83.9962 12.1375 83.9962 12.1979 83.9962 12.2583C83.9358 14.0094 83.9358 15.821 83.8755 17.5722C83.8755 17.693 83.8151 17.8137 83.6943 17.9345C82.9697 18.5987 82.3054 19.263 81.5808 19.9272C81.2185 20.2291 81.0373 20.5915 81.0977 21.0745C81.0977 21.5576 81.2789 21.6784 81.7016 21.4972C82.3658 21.1953 83.0904 20.8934 83.7547 20.5915C83.9358 20.5311 84.0566 20.4707 84.2378 20.4103C84.4189 20.833 84.4793 21.1953 84.6605 21.5576C84.8416 21.9803 85.1436 21.9803 85.3851 21.618C85.4455 21.4972 85.5059 21.4369 85.5663 21.3161C85.687 21.0142 85.8078 20.7726 85.9286 20.4707C86.0493 20.5311 86.1701 20.5915 86.2909 20.6518C87.0155 21.0142 87.6797 21.3765 88.4044 21.7388C88.7063 21.8596 88.9478 21.7992 88.9478 21.618C89.0082 21.1349 89.0082 20.6518 88.6459 20.2895C87.9817 19.5649 87.257 18.8403 86.5928 18.1157C86.5324 17.9949 86.4116 17.8741 86.4116 17.7533C86.472 16.0022 86.5928 14.251 86.6532 12.4998C86.6532 12.379 86.6532 12.2583 86.6532 12.0771C87.1967 12.1375 87.6797 12.0771 88.1628 12.3186C90.3971 13.466 92.571 14.6133 94.8052 15.821C94.926 15.8814 95.0468 15.9418 95.1675 16.0022C95.4695 15.2775 95.3487 14.7341 94.8052 14.3114C94.6845 14.251 94.6241 14.1302 94.5033 14.0698C92.0275 11.9563 89.4913 9.84284 87.0155 7.72935C86.8343 7.60858 86.774 7.42742 86.774 7.18588C86.8343 6.15932 86.8343 5.13277 86.8947 4.10622C86.9551 3.32121 86.9551 2.53619 86.774 1.75118C86.8947 1.81157 86.6532 0.483085 86.0493 0.120771Z" fill="#FEB10A"/>
<path d="M40.3979 113.223C42.1491 113.404 43.9002 113.525 45.6514 113.525C70.8322 113.525 91.3029 93.1142 91.3029 67.8731C91.3029 61.9553 90.1556 56.3395 88.1628 51.1463C84.4793 79.3463 65.8202 102.776 40.3979 113.223Z" fill="#029FC0"/>
<path d="M74.3345 66.545C61.8347 78.6221 45.8929 87.1968 28.0792 90.5784C22.4634 91.6654 16.606 92.2088 10.6882 92.2088C9.48048 92.2088 8.27277 92.1484 7.06506 92.1484C9.60126 96.1339 12.6809 99.6966 16.304 102.776C25.4826 102.112 34.1782 99.8778 42.2094 96.3754C55.1319 90.6992 66.2429 81.581 74.3345 70.2285C76.6292 67.0281 78.6823 63.6465 80.4939 60.0837C78.5011 62.318 76.5084 64.4919 74.3345 66.545Z" fill="#01BFE8"/>
<path d="M79.7693 37.6199C76.8708 42.6923 73.2476 47.2816 69.081 51.3275C58.3324 61.593 43.7795 67.9335 27.717 67.9335C24.0334 67.9335 20.4707 67.6315 16.9683 66.9673C11.1109 65.9408 5.61586 64.0084 0.483086 61.4118C0.181158 63.5253 0 65.6992 0 67.9335C0 71.2547 0.362316 74.4551 1.02656 77.5952C7.18588 80.3125 13.8283 82.0033 20.8934 82.4864C22.2823 82.6072 23.6711 82.6072 25.1204 82.6072C44.6249 82.6072 61.9555 73.2474 72.8853 58.8153C76.9915 53.3806 80.192 47.2816 82.2451 40.6392C83.7547 35.9292 84.6605 30.9172 84.902 25.724C83.6339 29.8906 81.8828 33.876 79.7693 37.6199Z" fill="#01BFE8"/>
<path d="M2.71747 52.5353C7.91062 54.6488 13.4661 56.0377 19.2631 56.5811C23.6712 46.3156 33.816 39.1901 45.6516 39.1901C51.6901 39.1901 57.306 41.0621 61.8953 44.2625C66.4242 40.7601 70.3492 36.5935 73.7308 31.9438C66.0015 25.9053 56.219 22.2822 45.6516 22.2822C25.8451 22.2822 8.99756 34.9027 2.71747 52.5353Z" fill="#FEB10A"/>
</svg>
