<svg width="118" height="48" viewBox="0 0 118 48" fill="none" xmlns="http://www.w3.org/2000/svg">
<path d="M62.209 36.7653L57.206 28.5533L52.4556 36.7653H45.8608L53.9464 24.4347L46.7957 13.6201H53.4916L57.4586 20.2402L61.2993 13.6201H67.9447L60.8698 24.561L68.8796 36.7653H62.209Z" fill="white"/>
<path d="M85.7079 36.7653L76.8895 22.6912L76.8137 22.7165L76.9906 36.7653H71.3306V13.6201H76.4347L85.3795 28.1743L85.43 28.1238L85.1773 13.6454H90.8373V36.7906H85.7079V36.7653Z" fill="white"/>
<path d="M118 28.0982C117.318 30.8271 115.903 33.0254 113.73 34.6931C111.582 36.3608 109.106 37.1946 106.301 37.1946C102.915 37.1946 100.035 36.0323 97.6848 33.7077C95.3096 31.383 94.122 28.5278 94.122 25.1419C94.122 21.7813 95.3096 18.9261 97.6595 16.6014C100.009 14.3021 102.865 13.165 106.25 13.165C110.647 13.165 114.033 14.9843 116.433 18.5976C117.267 19.861 117.798 21.1244 118 22.3877H111.809C110.773 19.7094 108.929 18.3449 106.225 18.3449C104.406 18.3449 102.89 19.0271 101.728 20.3663C100.591 21.6802 100.035 23.2468 100.035 25.0914C100.035 26.9612 100.591 28.5531 101.728 29.867C102.915 31.282 104.431 31.9642 106.25 31.9642C108.777 31.9642 110.622 30.6503 111.809 28.0477H118V28.0982Z" fill="white"/>
<path d="M45.9872 45.7597L46.9726 41.1357C47.0232 41.1357 47.099 41.1357 47.2253 41.161C47.3264 41.1863 47.4274 41.1863 47.478 41.1863C47.5285 41.1863 47.6296 41.1863 47.7307 41.161C47.857 41.1357 47.9328 41.1357 47.9833 41.1357L47.5285 43.2582C47.8823 42.9297 48.2613 42.576 48.6403 42.197C49.0698 41.7927 49.4236 41.439 49.7268 41.1357C49.8531 41.161 49.9542 41.161 50.0805 41.1863C50.1311 41.1863 50.1816 41.1863 50.2574 41.161C50.3332 41.161 50.3838 41.1357 50.4596 41.1357V41.1863L49.0951 42.3486L48.3118 43.0561L49.5752 45.6587L49.5499 45.7597C49.4994 45.7597 49.4236 45.7597 49.2972 45.7345C49.1962 45.7092 49.0951 45.7092 49.0446 45.7092C48.994 45.7092 48.893 45.7092 48.7919 45.7345C48.6656 45.7597 48.5898 45.7597 48.5392 45.7597L47.478 43.612L47.0232 45.7597C46.9726 45.7597 46.8715 45.7597 46.7705 45.7345C46.6694 45.7092 46.5683 45.7092 46.5178 45.7092C46.4673 45.7092 46.3662 45.7092 46.2651 45.7345C46.1388 45.7597 46.0377 45.7597 45.9872 45.7597Z" fill="white"/>
<path d="M53.1885 44.1173H51.2681L51.2429 44.2184C51.1671 44.5721 51.1923 44.85 51.2934 45.0269C51.3945 45.2543 51.6219 45.3554 51.9504 45.3554C52.0767 45.3554 52.2283 45.3301 52.3799 45.2796C52.5315 45.2291 52.6579 45.1533 52.8095 45.0522L52.8853 45.1027L52.6579 45.4817C52.3041 45.6839 51.9756 45.785 51.6219 45.785C51.066 45.785 50.687 45.6333 50.4596 45.3049C50.2322 45.0017 50.1816 44.5468 50.308 43.9909C50.409 43.5109 50.6365 43.1318 50.9649 42.8286C51.2934 42.5254 51.6977 42.3738 52.1778 42.3738C52.6579 42.3738 52.9863 42.5254 53.1632 42.8034C53.3148 43.056 53.3654 43.4098 53.2643 43.8646L53.1885 44.1173ZM52.1525 40.9336H52.7842L53.3654 42.1211H52.9863L52.3799 41.4642L51.4956 42.1211H51.1165L52.1525 40.9336ZM51.3187 43.7888H52.3041C52.3547 43.5109 52.3799 43.2835 52.3799 43.1318C52.3547 42.8539 52.2789 42.7276 52.0767 42.7276C51.8493 42.7276 51.6724 42.8539 51.5208 43.1318C51.4703 43.3087 51.3945 43.5109 51.3187 43.7888ZM54.4519 39.9734C54.5277 39.9229 54.6035 39.9229 54.7046 39.9229C54.7804 39.9229 54.8562 39.9481 54.9067 39.9987C54.9572 40.0492 54.9572 40.125 54.9572 40.2008C54.932 40.3019 54.8814 40.3777 54.7804 40.4535C54.7045 40.504 54.6035 40.5545 54.5277 40.6051L53.517 41.1357H53.138L54.2245 40.1503C54.3003 40.0745 54.4013 39.9987 54.4519 39.9734Z" fill="white"/>
<path d="M55.1593 42.9298L54.755 44.8501C54.7045 45.0775 54.7045 45.2291 54.7045 45.3302C54.7298 45.4313 54.8056 45.4818 54.9572 45.4818C55.0077 45.4818 55.033 45.4818 55.0582 45.4818C55.0835 45.4818 55.1593 45.4565 55.2604 45.4313L55.2099 45.6839C54.9319 45.785 54.6792 45.8355 54.4771 45.8355C54.1486 45.8355 53.9465 45.7345 53.8454 45.5323C53.7696 45.3555 53.7696 45.1028 53.8454 44.749L54.2244 42.955H53.7696C53.7949 42.9045 53.8201 42.8287 53.8201 42.7276L53.8454 42.6518C53.8454 42.6265 53.8454 42.6013 53.8707 42.576C53.8707 42.5507 53.8707 42.5255 53.8707 42.5002H54.3255L54.4771 41.7422C54.7803 41.6411 55.1341 41.4895 55.4878 41.3379L55.2351 42.5255H55.8163C55.791 42.6265 55.7657 42.6771 55.7405 42.7276C55.7405 42.7529 55.7152 42.8287 55.7152 42.955H55.1593V42.9298Z" fill="white"/>
<path d="M57.6609 45.76L58.3431 42.4752C58.4189 42.4752 58.4947 42.5005 58.5453 42.5005C58.5958 42.5005 58.6969 42.5005 58.7727 42.5005C58.8485 42.5005 58.9243 42.5005 59.0253 42.5005C59.1264 42.5005 59.177 42.5005 59.2275 42.4752L59.1264 42.9806C59.3033 42.8037 59.5054 42.6774 59.6823 42.5763C59.8844 42.4752 60.0866 42.3994 60.2887 42.3994C60.693 42.3994 60.9457 42.5258 61.0468 42.7784C61.1478 43.0058 61.1478 43.3091 61.0468 43.7639L60.6172 45.7348C60.5667 45.7348 60.5161 45.7347 60.4403 45.7095C60.2887 45.6842 60.1877 45.6842 60.1624 45.6842C60.1119 45.6842 60.0361 45.6842 59.9097 45.7095C59.8086 45.7347 59.7328 45.7348 59.6823 45.7348L60.0361 44.0418C60.1119 43.6881 60.1371 43.4101 60.1119 43.2585C60.0613 43.0564 59.935 42.9553 59.7328 42.9553C59.4802 42.9553 59.278 43.1069 59.1264 43.4101C59.0506 43.587 58.9748 43.8397 58.899 44.1682L58.5705 45.7348C58.52 45.7348 58.4442 45.7347 58.3431 45.7095C58.242 45.6842 58.1662 45.6842 58.1157 45.6842C58.0652 45.6842 57.9894 45.6842 57.8883 45.7095C57.8378 45.7347 57.7367 45.76 57.6609 45.76Z" fill="white"/>
<path d="M62.8154 45.8102C62.3606 45.8102 62.0069 45.6586 61.8047 45.3554C61.6026 45.0522 61.5521 44.6732 61.6531 44.1678C61.7795 43.6372 61.9816 43.2076 62.3354 42.8792C62.6638 42.5507 63.0681 42.3991 63.5482 42.3991C64.003 42.3991 64.3568 42.5507 64.5589 42.8286C64.7611 43.1066 64.8369 43.5109 64.7105 44.0162C64.6095 44.5468 64.382 44.9764 64.0283 45.3049C63.6998 45.6586 63.2955 45.8102 62.8154 45.8102ZM63.5482 40.9336H64.1546L64.7358 42.1211H64.3568L63.7503 41.4642L62.8407 42.1211H62.4617L63.5482 40.9336ZM63.4977 42.7276C63.2703 42.7276 63.0681 42.8792 62.8912 43.1571C62.7649 43.3845 62.6386 43.7383 62.5375 44.1678C62.4617 44.4963 62.4364 44.7742 62.4617 45.0017C62.487 45.3301 62.6133 45.507 62.8407 45.507C63.0681 45.507 63.2703 45.3301 63.4471 45.0017C63.5987 44.7237 63.6998 44.37 63.8009 43.9404C63.8767 43.5867 63.902 43.3087 63.8514 43.1066C63.8262 42.8539 63.6998 42.7276 63.4977 42.7276ZM65.8981 39.9734C65.9739 39.9229 66.0497 39.9229 66.1508 39.9229C66.2266 39.9229 66.3024 39.9481 66.3529 39.9987C66.4035 40.0492 66.4035 40.125 66.3782 40.2008C66.3529 40.3019 66.3024 40.3777 66.2013 40.4535C66.1255 40.504 66.0244 40.5545 65.9234 40.6051L64.9127 41.1357H64.5336L65.6202 40.1503C65.7465 40.0745 65.8223 39.9987 65.8981 39.9734Z" fill="white"/>
<path d="M64.9631 45.7597L65.6454 42.4749C65.6959 42.4749 65.797 42.4749 65.9233 42.5002C66.0496 42.5002 66.1254 42.5254 66.1254 42.5254C66.2012 42.5254 66.277 42.5254 66.3781 42.5254C66.4792 42.5254 66.5297 42.5255 66.5803 42.5002L65.898 45.785C65.8475 45.785 65.7717 45.785 65.7212 45.7597C65.5696 45.7344 65.4685 45.7344 65.4432 45.7344C65.3927 45.7344 65.3169 45.7344 65.1905 45.7597C65.0895 45.7597 65.0137 45.7597 64.9631 45.7597ZM65.8475 41.2621C65.8728 41.1105 65.9486 40.9841 66.0749 40.883C66.2012 40.782 66.3276 40.7314 66.4792 40.7314C66.6308 40.7314 66.7319 40.782 66.8329 40.883C66.9087 40.9841 66.9593 41.1105 66.9087 41.2621C66.8835 41.4137 66.8077 41.54 66.6561 41.6411C66.5297 41.7421 66.3781 41.7927 66.2518 41.7927C66.1002 41.7927 65.9991 41.7421 65.9233 41.6411C65.8475 41.5147 65.8222 41.3884 65.8475 41.2621Z" fill="white"/>
<path d="M68.7534 45.76L69.4356 42.4752C69.5114 42.4752 69.5872 42.5005 69.6377 42.5005C69.6883 42.5005 69.7893 42.5005 69.8651 42.5005C69.9409 42.5005 70.0167 42.5005 70.1178 42.5005C70.2189 42.5005 70.2694 42.5005 70.3199 42.4752L70.2189 42.9806C70.3958 42.8037 70.5979 42.6774 70.7748 42.5763C70.9769 42.4752 71.1791 42.3994 71.3812 42.3994C71.7855 42.3994 72.0382 42.5258 72.1392 42.7784C72.2403 43.0058 72.2403 43.3091 72.1392 43.7639L71.7097 45.7348C71.6591 45.7348 71.6086 45.7347 71.5328 45.7095C71.3812 45.6842 71.2801 45.6842 71.2549 45.6842C71.2043 45.6842 71.1285 45.6842 71.0022 45.7095C70.9011 45.7347 70.8253 45.7348 70.7748 45.7348L71.1285 44.0418C71.2043 43.6881 71.2296 43.4101 71.2043 43.2585C71.1538 43.0564 71.0274 42.9553 70.8253 42.9553C70.5726 42.9553 70.3705 43.1069 70.2189 43.4101C70.1431 43.587 70.0673 43.8397 69.9915 44.1682L69.663 45.7348C69.6125 45.7348 69.5367 45.7347 69.4356 45.7095C69.3345 45.6842 69.2587 45.6842 69.2082 45.6842C69.1576 45.6842 69.0818 45.6842 68.9808 45.7095C68.905 45.7347 68.8292 45.76 68.7534 45.76Z" fill="white"/>
<path d="M74.5649 40.6304L74.0596 42.955C74.2112 42.8287 74.3881 42.7023 74.5902 42.6013C74.8176 42.4749 75.0197 42.4244 75.1714 42.4244C75.4746 42.4244 75.7272 42.5254 75.8788 42.7276C75.9799 42.8287 76.0305 42.955 76.0305 43.0813C76.0305 43.2077 76.0305 43.3846 75.9799 43.5867L75.5251 45.7597C75.4746 45.7597 75.424 45.7597 75.3482 45.7344C75.1966 45.7092 75.0956 45.7092 75.0703 45.7092C75.0198 45.7092 74.9439 45.7092 74.8176 45.7344C74.7165 45.7597 74.6407 45.7597 74.5902 45.7597L74.9439 44.0668C75.0198 43.713 75.045 43.4351 75.0197 43.2835C74.9692 43.0813 74.8429 42.9803 74.6407 42.9803C74.4133 42.9803 74.2112 43.1066 74.0596 43.3593C73.9585 43.5362 73.8827 43.7636 73.8322 44.0415L73.8069 44.1931L73.4784 45.7597C73.4279 45.7597 73.3521 45.7597 73.251 45.7344C73.1499 45.7092 73.0741 45.7092 73.0236 45.7092C72.9731 45.7092 72.8973 45.7092 72.7962 45.7344C72.7204 45.7344 72.6193 45.7597 72.5435 45.7597L73.63 40.6304C73.6806 40.6304 73.7564 40.6304 73.8574 40.6556C73.9585 40.6556 74.0343 40.6809 74.0596 40.6809C74.1101 40.6809 74.1859 40.6809 74.3123 40.6556C74.4386 40.6304 74.5144 40.6304 74.5649 40.6304Z" fill="white"/>
<path d="M79.7448 42.6013C79.8206 42.576 79.8712 42.576 79.8964 42.576C79.9217 42.576 79.947 42.5507 79.9975 42.5002C80.048 42.4497 80.0733 42.3991 80.0986 42.3233C80.1238 42.2223 80.1238 42.1717 80.0986 42.1464C80.0986 42.1212 80.048 42.1212 79.9975 42.0959C79.9217 42.0959 79.8964 42.0706 79.8964 42.0706L79.9722 41.6664C80.048 41.6916 80.1238 41.6916 80.1744 41.6916L80.4776 41.6664H80.6797L80.6545 41.7674L80.5787 42.0706C80.5534 42.1717 80.5281 42.2728 80.4776 42.3486C80.427 42.4244 80.3512 42.5255 80.2502 42.6265C80.1744 42.7023 80.0986 42.7529 80.0228 42.7781C79.947 42.8034 79.8459 42.8287 79.7196 42.8287L79.0879 45.785C78.9363 45.7597 78.8099 45.7597 78.6583 45.7345C78.6078 45.7345 78.532 45.7345 78.4562 45.7597C78.3804 45.7597 78.3046 45.785 78.2288 45.785L78.3298 45.2796C78.153 45.4312 78.0266 45.5576 77.9508 45.6081C77.7234 45.7597 77.496 45.8355 77.2433 45.8355C77.0664 45.8355 76.9148 45.8103 76.7885 45.7345C76.6622 45.6587 76.5358 45.5576 76.4853 45.4312C76.4347 45.3302 76.4095 45.2038 76.4095 45.0522C76.4095 44.9006 76.4348 44.749 76.46 44.5974L76.5106 44.37L76.9148 42.5002L77.3444 42.5255C77.3949 42.5255 77.496 42.5255 77.5971 42.5002C77.6981 42.4749 77.7739 42.4749 77.7992 42.4749L77.3949 44.3447C77.3444 44.5469 77.3191 44.6732 77.3191 44.7238C77.3191 44.7743 77.3191 44.8248 77.3444 44.9006C77.3697 45.027 77.3949 45.1028 77.4707 45.1533C77.5213 45.2038 77.6223 45.2544 77.7234 45.2544C77.9761 45.2544 78.153 45.128 78.2793 44.9006C78.3551 44.7743 78.4309 44.5469 78.4814 44.2437L78.8605 42.5002C78.9363 42.5002 78.9868 42.5255 79.0626 42.5255C79.1384 42.5255 79.2142 42.5255 79.29 42.5255C79.3658 42.5255 79.4416 42.5255 79.5427 42.5255C79.6437 42.5255 79.6943 42.5255 79.7448 42.5002V42.6013ZM79.5427 41.1357H79.7954C79.6943 41.3884 79.5679 41.5906 79.4669 41.7169C79.29 41.8938 79.1131 41.9948 78.911 41.9948C78.8352 41.9948 78.7594 41.9696 78.6836 41.9443C78.6583 41.9443 78.6078 41.8938 78.5067 41.8432C78.4056 41.7927 78.3298 41.7422 78.2793 41.7169C78.1782 41.6664 78.1024 41.6411 78.0519 41.6411C77.9508 41.6411 77.875 41.6916 77.8245 41.7674C77.7739 41.8432 77.7234 41.919 77.7234 41.9696H77.4707C77.5213 41.7422 77.6476 41.54 77.8497 41.3632C78.0014 41.2115 78.1782 41.1357 78.3551 41.1357C78.4562 41.1357 78.5825 41.161 78.6836 41.2368C78.7594 41.2874 78.8352 41.3126 78.8605 41.3379C78.911 41.3884 78.9868 41.4137 79.0373 41.439C79.0879 41.4642 79.1384 41.4642 79.1889 41.4642C79.2647 41.4642 79.3405 41.439 79.4163 41.3632C79.4163 41.3379 79.4669 41.2621 79.5427 41.1357Z" fill="white"/>
<path d="M79.8206 45.76L80.5028 42.4752C80.5787 42.4752 80.6545 42.5005 80.705 42.5005C80.7555 42.5005 80.8566 42.5005 80.9324 42.5005C81.0082 42.5005 81.084 42.5005 81.1851 42.5005C81.2861 42.5005 81.3367 42.5005 81.3872 42.4752L81.2861 42.9806C81.463 42.8037 81.6652 42.6774 81.842 42.5763C82.0442 42.4752 82.2463 42.3994 82.4485 42.3994C82.8527 42.3994 83.1054 42.5258 83.2065 42.7784C83.3076 43.0058 83.3076 43.3091 83.2065 43.7639L82.7769 45.7348C82.7264 45.7348 82.6759 45.7347 82.6001 45.7095C82.4485 45.6842 82.3474 45.6842 82.3221 45.6842C82.2716 45.6842 82.1958 45.6842 82.0694 45.7095C81.9684 45.7347 81.8926 45.7348 81.842 45.7348L82.1958 44.0418C82.2716 43.6881 82.2969 43.4101 82.2716 43.2585C82.2211 43.0564 82.0947 42.9553 81.8926 42.9553C81.6399 42.9553 81.4377 43.1069 81.2861 43.4101C81.2103 43.587 81.1345 43.8397 81.0587 44.1682L80.7303 45.7348C80.6797 45.7348 80.6039 45.7347 80.5028 45.7095C80.4018 45.6842 80.326 45.6842 80.2754 45.6842C80.2249 45.6842 80.1491 45.6842 80.048 45.7095C79.9722 45.7347 79.8964 45.76 79.8206 45.76Z" fill="white"/>
<path d="M87.1987 42.45L87.1229 42.7532L86.5165 42.7279C86.7186 42.93 86.7944 43.1827 86.7186 43.4859C86.6428 43.8649 86.4407 44.1429 86.1375 44.3198C85.8595 44.4966 85.5058 44.5724 85.0762 44.5724H84.9752C84.8741 44.5724 84.7983 44.5977 84.773 44.623C84.6972 44.6735 84.672 44.7493 84.6467 44.7998C84.6214 44.9262 84.6467 45.002 84.7478 45.0778C84.8236 45.1283 84.9752 45.1536 85.1268 45.1536L85.7079 45.1789C86.0617 45.1789 86.2891 45.2547 86.4154 45.4315C86.5165 45.5831 86.5418 45.7853 86.4912 46.0632C86.3902 46.518 86.1375 46.8971 85.7079 47.1497C85.3289 47.3771 84.8994 47.5035 84.4193 47.5035C84.0655 47.5035 83.7876 47.4529 83.5854 47.3266C83.3075 47.175 83.2064 46.9476 83.2822 46.6191C83.3075 46.4422 83.4086 46.2906 83.5349 46.1643C83.6613 46.038 83.8129 45.9369 83.9897 45.8611L84.0908 45.7853L84.0655 45.7348C83.8634 45.6589 83.7876 45.4821 83.8381 45.2294C83.8634 45.0778 83.9645 44.9262 84.0908 44.7998C84.2424 44.6735 84.3687 44.5724 84.4951 44.5472L84.5962 44.5219C84.0403 44.3956 83.8381 44.0165 83.9645 43.4354C84.0403 43.0816 84.2424 42.8037 84.5204 42.6521C84.8236 42.4752 85.2026 42.3994 85.6827 42.3994C85.7585 42.3994 85.8848 42.3994 86.0617 42.4247C86.2386 42.4247 86.3396 42.45 86.3649 42.45H87.1987ZM83.9897 46.2148C83.9645 46.2401 83.9392 46.2906 83.9392 46.3159C83.9139 46.3664 83.9139 46.417 83.8887 46.4675C83.8381 46.7202 83.8887 46.8971 84.0403 47.0234C84.1919 47.1497 84.394 47.2255 84.6467 47.2255C84.8994 47.2255 85.1015 47.1497 85.3037 46.9981C85.5058 46.8465 85.6069 46.6697 85.6574 46.4675C85.7079 46.1896 85.6574 46.0127 85.4553 45.9116C85.3289 45.8611 85.1268 45.8358 84.7983 45.8358C84.5456 45.8358 84.3687 45.8611 84.2677 45.9369C84.1666 46.0127 84.0403 46.0885 83.9897 46.2148ZM84.8994 43.5617C84.8488 43.8144 84.8488 44.0165 84.8994 44.1429C84.9499 44.2692 85.0257 44.3198 85.1773 44.3198C85.4047 44.3198 85.5563 44.1682 85.6827 43.8397C85.7332 43.7133 85.7837 43.587 85.809 43.4101C85.8595 43.208 85.8595 43.0564 85.8595 42.93C85.8343 42.7532 85.7332 42.6521 85.5563 42.6521C85.3795 42.6521 85.2026 42.7532 85.1015 42.9806C85.0004 43.1322 84.9499 43.3343 84.8994 43.5617Z" fill="white"/>
<path d="M92.4544 42.728L92.0501 43.4355H91.8985C91.9238 43.2334 91.8733 43.0818 91.7975 42.9302C91.6964 42.8038 91.5448 42.728 91.3679 42.728C91.09 42.728 90.8373 42.8796 90.6099 43.2081C90.433 43.4608 90.3319 43.7387 90.2561 44.0672C90.1551 44.4968 90.1803 44.8252 90.2814 45.0274C90.4077 45.2548 90.6352 45.3811 90.9889 45.3811C91.1152 45.3811 91.2416 45.3559 91.3932 45.3053C91.5448 45.2548 91.6459 45.179 91.7469 45.0779L91.8227 45.179L91.5701 45.5833C91.469 45.6591 91.3174 45.7349 91.1405 45.7601C90.9384 45.8107 90.7868 45.8359 90.6352 45.8359C90.1045 45.8359 89.7003 45.6843 89.4476 45.4064C89.1696 45.1032 89.0938 44.6989 89.2202 44.1683C89.3212 43.6377 89.5739 43.2081 89.9782 42.9049C90.3572 42.5764 90.8373 42.4248 91.3679 42.4248C91.5701 42.4248 91.7722 42.4501 91.9743 42.5006C92.1512 42.5511 92.3281 42.6269 92.4544 42.728Z" fill="white"/>
<path d="M94.3495 40.6304L93.8441 42.955C93.9957 42.8287 94.1726 42.7023 94.3747 42.6013C94.6022 42.4749 94.8043 42.4244 94.9559 42.4244C95.2591 42.4244 95.5118 42.5254 95.6634 42.7276C95.7645 42.8287 95.815 42.955 95.815 43.0813C95.815 43.2077 95.815 43.3846 95.7645 43.5867L95.3096 45.7597C95.2591 45.7597 95.2086 45.7597 95.1328 45.7344C94.9812 45.7092 94.8801 45.7092 94.8548 45.7092C94.8043 45.7092 94.7285 45.7092 94.6022 45.7344C94.5011 45.7597 94.4253 45.7597 94.3747 45.7597L94.7285 44.0668C94.8043 43.713 94.8296 43.4351 94.8043 43.2835C94.7538 43.0813 94.6274 42.9803 94.4253 42.9803C94.1979 42.9803 93.9957 43.1066 93.8441 43.3593C93.7431 43.5362 93.6673 43.7636 93.6167 44.0415L93.5914 44.1931L93.263 45.7597C93.2124 45.7597 93.1366 45.7597 93.0356 45.7344C92.9345 45.7092 92.8587 45.7092 92.8081 45.7092C92.7576 45.7092 92.6818 45.7092 92.5807 45.7344C92.5049 45.7344 92.4039 45.7597 92.3281 45.7597L93.4146 40.6304C93.4651 40.6304 93.5409 40.6304 93.642 40.6556C93.7431 40.6556 93.8189 40.6809 93.8441 40.6809C93.8947 40.6809 93.9705 40.6809 94.0968 40.6556C94.2231 40.6304 94.2989 40.6304 94.3495 40.6304Z" fill="white"/>
<path d="M99.5294 42.4999L98.8471 45.7847C98.6955 45.7594 98.5692 45.7594 98.4176 45.7341C98.367 45.7341 98.2912 45.7341 98.2154 45.7594C98.1396 45.7594 98.0638 45.7847 97.988 45.7847L98.0891 45.2793C97.9122 45.4309 97.7859 45.5573 97.7101 45.6078C97.4827 45.7594 97.2553 45.8352 97.0026 45.8352C96.8257 45.8352 96.6741 45.8099 96.5478 45.7341C96.4214 45.6583 96.2951 45.5573 96.2446 45.4309C96.194 45.3299 96.1688 45.2035 96.1688 45.0519C96.1688 44.9003 96.194 44.7487 96.2193 44.5971L96.2698 44.3697L96.6741 42.4999L97.1037 42.5251C97.1542 42.5251 97.2553 42.5251 97.3563 42.4999C97.4827 42.4999 97.5332 42.4746 97.5585 42.4746L97.1542 44.3444C97.1037 44.5466 97.0784 44.6729 97.0784 44.7234C97.0784 44.774 97.0784 44.8245 97.1037 44.9003C97.1289 45.0266 97.1542 45.1024 97.23 45.153C97.2805 45.2035 97.3816 45.2541 97.4827 45.2541C97.7354 45.2541 97.9122 45.1277 98.0386 44.9003C98.1144 44.774 98.1902 44.5466 98.2407 44.2433L98.6197 42.4999C98.6955 42.4999 98.7461 42.5251 98.8219 42.5251C98.8977 42.5251 98.9735 42.5251 99.0493 42.5251C99.1251 42.5251 99.2009 42.5251 99.302 42.5251C99.4283 42.4999 99.4788 42.4999 99.5294 42.4999Z" fill="white"/>
<path d="M99.4788 47.4776L100.717 45.7341L100.035 42.4746C100.085 42.4746 100.186 42.4746 100.313 42.4999C100.439 42.4999 100.515 42.5251 100.54 42.5251C100.591 42.5251 100.692 42.5251 100.818 42.4999C100.944 42.4999 101.02 42.4746 101.045 42.4746C101.096 42.8031 101.121 43.081 101.172 43.2832C101.197 43.4853 101.273 43.9149 101.424 44.5718L101.829 43.8896C101.98 43.6622 102.081 43.4853 102.132 43.359C102.284 43.081 102.46 42.8031 102.637 42.4746C102.688 42.4746 102.738 42.4999 102.764 42.4999C102.814 42.4999 102.839 42.4999 102.89 42.4999H102.991C103.016 42.4999 103.042 42.4999 103.092 42.4999C103.143 42.4999 103.168 42.4746 103.193 42.4746L102.182 44.0159C101.753 44.6729 101.399 45.2288 101.071 45.7341C100.767 46.2395 100.414 46.8206 100.035 47.4523C99.9842 47.4523 99.9336 47.4271 99.9084 47.4271C99.8578 47.4271 99.8326 47.4271 99.7568 47.4271C99.7062 47.4271 99.6557 47.4271 99.6052 47.4271C99.5546 47.4523 99.5041 47.4776 99.4788 47.4776Z" fill="white"/>
<path d="M106.124 44.1173H104.204L104.179 44.2184C104.103 44.5721 104.128 44.85 104.229 45.0269C104.33 45.2543 104.558 45.3554 104.886 45.3554C105.012 45.3554 105.164 45.3301 105.316 45.2796C105.467 45.2291 105.594 45.1533 105.745 45.0522L105.821 45.1027L105.594 45.4817C105.24 45.6839 104.911 45.785 104.558 45.785C104.002 45.785 103.623 45.6333 103.395 45.3049C103.168 45.0017 103.117 44.5468 103.244 43.9909C103.345 43.5109 103.572 43.1318 103.901 42.8286C104.229 42.5254 104.633 42.3738 105.114 42.3738C105.594 42.3738 105.922 42.5254 106.099 42.8034C106.251 43.056 106.301 43.4098 106.2 43.8646L106.124 44.1173ZM105.063 40.9336H105.695L106.276 42.1211H105.897L105.29 41.4642L104.406 42.1211H104.027L105.063 40.9336ZM104.254 43.7888H105.24C105.29 43.5109 105.316 43.2835 105.316 43.1318C105.29 42.8539 105.215 42.7276 105.012 42.7276C104.785 42.7276 104.608 42.8539 104.457 43.1318C104.381 43.3087 104.305 43.5109 104.254 43.7888ZM107.388 39.9734C107.463 39.9229 107.539 39.9229 107.64 39.9229C107.716 39.9229 107.792 39.9481 107.842 39.9987C107.893 40.0492 107.893 40.125 107.893 40.2008C107.868 40.3019 107.817 40.3777 107.716 40.4535C107.64 40.504 107.539 40.5545 107.463 40.6051L106.453 41.1357H106.074L107.16 40.1503C107.236 40.0745 107.312 39.9987 107.388 39.9734Z" fill="white"/>
<path d="M106.352 45.76L107.034 42.4752C107.11 42.4752 107.185 42.5005 107.236 42.5005C107.287 42.5005 107.388 42.5005 107.463 42.5005C107.539 42.5005 107.615 42.5005 107.716 42.5005C107.817 42.5005 107.868 42.5005 107.918 42.4752L107.817 42.9806C107.994 42.8037 108.196 42.6774 108.373 42.5763C108.575 42.4752 108.777 42.3994 108.979 42.3994C109.384 42.3994 109.636 42.5258 109.737 42.7784C109.839 43.0058 109.839 43.3091 109.737 43.7639L109.308 45.7348C109.257 45.7348 109.207 45.7347 109.131 45.7095C108.979 45.6842 108.878 45.6842 108.853 45.6842C108.803 45.6842 108.727 45.6842 108.6 45.7095C108.499 45.7347 108.424 45.7348 108.373 45.7348L108.727 44.0418C108.803 43.6881 108.828 43.4101 108.803 43.2585C108.752 43.0564 108.626 42.9553 108.424 42.9553C108.171 42.9553 107.969 43.1069 107.817 43.4101C107.741 43.587 107.666 43.8397 107.59 44.1682L107.261 45.7348C107.211 45.7348 107.135 45.7347 107.034 45.7095C106.933 45.6842 106.857 45.6842 106.806 45.6842C106.756 45.6842 106.68 45.6842 106.579 45.7095C106.528 45.7347 106.427 45.76 106.352 45.76Z" fill="white"/>
<path d="M115.953 41.717L115.094 45.7851C114.943 45.7598 114.816 45.7598 114.665 45.7346C114.614 45.7346 114.538 45.7346 114.437 45.7598C114.361 45.7598 114.286 45.7851 114.21 45.7851L114.336 45.1787C114.21 45.3808 114.058 45.5324 113.881 45.6588C113.705 45.7851 113.502 45.8356 113.275 45.8356C112.82 45.8356 112.517 45.6588 112.365 45.305C112.239 45.0018 112.214 44.6228 112.315 44.1174C112.416 43.6626 112.593 43.2583 112.871 42.9551C113.174 42.6014 113.553 42.4245 113.957 42.4245C114.185 42.4245 114.361 42.475 114.488 42.5508C114.614 42.6266 114.715 42.753 114.766 42.9299L115.018 41.717H114.336L114.437 41.2622H115.12L115.246 40.6558C115.296 40.6558 115.372 40.6558 115.473 40.681C115.574 40.7063 115.65 40.7063 115.701 40.7063C115.776 40.7063 115.827 40.7063 115.928 40.681C116.004 40.681 116.105 40.6558 116.181 40.6558L116.054 41.2622H116.282L116.181 41.717H115.953ZM114.21 42.8793C113.957 42.8793 113.755 43.0309 113.578 43.3594C113.452 43.5615 113.376 43.8395 113.3 44.168C113.224 44.4712 113.199 44.7239 113.224 44.926C113.25 45.2292 113.376 45.4061 113.629 45.4061C113.881 45.4061 114.084 45.2292 114.286 44.9007C114.412 44.6733 114.513 44.4206 114.564 44.0922C114.639 43.789 114.639 43.5363 114.614 43.3594C114.564 43.0309 114.437 42.8793 114.21 42.8793Z" fill="white"/>
<path d="M116.004 45.7597L116.686 42.4749C116.737 42.4749 116.838 42.4749 116.964 42.5002C117.09 42.5002 117.166 42.5254 117.166 42.5254C117.242 42.5254 117.318 42.5254 117.419 42.5254C117.52 42.5254 117.57 42.5255 117.621 42.5002L116.939 45.785C116.888 45.785 116.812 45.785 116.762 45.7597C116.61 45.7344 116.509 45.7344 116.484 45.7344C116.433 45.7344 116.358 45.7344 116.231 45.7597C116.156 45.7597 116.054 45.7597 116.004 45.7597ZM116.914 41.2621C116.939 41.1105 117.015 40.9841 117.141 40.883C117.267 40.782 117.394 40.7314 117.545 40.7314C117.697 40.7314 117.798 40.782 117.899 40.883C117.975 40.9841 118.025 41.1105 117.975 41.2621C117.95 41.4137 117.874 41.54 117.722 41.6411C117.596 41.7421 117.444 41.7927 117.318 41.7927C117.166 41.7927 117.065 41.7421 116.989 41.6411C116.888 41.5147 116.863 41.3884 116.914 41.2621Z" fill="white"/>
<path d="M36.0064 0.0505355C35.9812 0.0252679 35.9306 0 35.8801 0C35.8548 0 35.8548 0 35.8548 0C35.8548 0 35.8548 0 35.8295 0C35.4758 0.0505353 35.3747 0.783298 35.3747 0.783298C35.2989 1.08651 35.2737 1.38972 35.2737 1.69293C35.2737 2.12248 35.2484 2.5773 35.2231 3.00685C35.2231 3.10792 35.1979 3.15846 35.1221 3.209C34.7683 3.46167 34.4146 3.73962 34.0355 3.99229C33.227 4.59872 32.4184 5.17987 31.6098 5.7863C31.433 5.91264 31.3824 6.21585 31.5088 6.41799C31.5593 6.39272 31.6351 6.36745 31.6857 6.34219C32.6458 5.91263 33.606 5.50835 34.5409 5.0788C34.743 4.97773 34.9452 5.02827 35.1473 5.02827C35.1473 5.0788 35.1473 5.10407 35.1473 5.12934C35.1221 5.8621 35.1221 6.62013 35.0968 7.35289C35.0968 7.40343 35.0715 7.45396 35.021 7.5045C34.7178 7.78244 34.4398 8.06039 34.1366 8.33833C33.985 8.46467 33.9092 8.61628 33.9345 8.81842C33.9345 9.02056 34.0103 9.07109 34.1872 8.99529C34.4651 8.86895 34.7683 8.74261 35.0463 8.61628C35.1221 8.59101 35.1726 8.56574 35.2484 8.54047C35.3242 8.71735 35.3495 8.86895 35.4253 9.02056C35.5011 9.19743 35.6274 9.19743 35.7285 9.04583C35.7537 8.99529 35.779 8.97002 35.8043 8.91949C35.8548 8.79315 35.9054 8.69208 35.9559 8.56574C36.0064 8.59101 36.057 8.61628 36.1075 8.64155C36.4107 8.79315 36.6887 8.94476 36.9919 9.09636C37.1182 9.1469 37.2193 9.12163 37.2193 9.04583C37.2445 8.84369 37.2445 8.64154 37.0929 8.48994C36.815 8.18673 36.5118 7.88351 36.2338 7.5803C36.2086 7.52977 36.158 7.47923 36.158 7.4287C36.1833 6.69593 36.2338 5.96317 36.2591 5.23041C36.2591 5.17987 36.2591 5.12934 36.2591 5.05353C36.4865 5.0788 36.6887 5.05353 36.8908 5.15461C37.8257 5.63469 38.7353 6.11478 39.6702 6.62013C39.7208 6.6454 39.7713 6.67067 39.8218 6.69593C39.9482 6.39272 39.8976 6.16531 39.6702 5.98844C39.6197 5.96317 39.5944 5.91264 39.5439 5.88737C38.5079 5.003 37.4467 4.11863 36.4107 3.23426C36.3349 3.18373 36.3096 3.10792 36.3096 3.00685C36.3349 2.5773 36.3349 2.14775 36.3602 1.7182C36.3854 1.38972 36.3854 1.06124 36.3096 0.732763C36.3602 0.758031 36.2591 0.202142 36.0064 0.0505355Z" fill="white"/>
<path d="M16.9041 47.377C17.6368 47.4528 18.3696 47.5034 19.1023 47.5034C29.639 47.5034 38.2047 38.9629 38.2047 28.401C38.2047 25.9248 37.7246 23.5749 36.8908 21.4019C35.3495 33.2019 27.5417 43.0057 16.9041 47.377Z" fill="white"/>
<path d="M31.1045 27.8448C25.8741 32.8983 19.2034 36.4863 11.7494 37.9013C9.39955 38.3561 6.94859 38.5835 4.47236 38.5835C3.96701 38.5835 3.46165 38.5582 2.9563 38.5582C4.01754 40.2259 5.30619 41.7167 6.82225 43.0054C10.6629 42.7274 14.3015 41.7925 17.6621 40.327C23.0694 37.9518 27.7186 34.1364 31.1045 29.3861C32.0647 28.0469 32.9238 26.6319 33.6818 25.1411C32.848 26.076 32.0141 26.9857 31.1045 27.8448Z" fill="white"/>
<path d="M33.3786 15.7419C32.1658 17.8644 30.6497 19.7847 28.9062 21.4777C24.4086 25.7732 18.3191 28.4263 11.5979 28.4263C10.0565 28.4263 8.56574 28.2999 7.10022 28.022C4.64925 27.5924 2.34989 26.7839 0.202142 25.6974C0.0758038 26.5817 0 27.4914 0 28.4263C0 29.816 0.151607 31.1552 0.429552 32.4691C3.00685 33.6061 5.7863 34.3136 8.74262 34.5158C9.32377 34.5663 9.90493 34.5663 10.5114 34.5663C18.6728 34.5663 25.9246 30.6498 30.4981 24.6108C32.2163 22.3368 33.5555 19.7847 34.4146 17.0053C35.0463 15.0344 35.4253 12.9372 35.5264 10.7642C34.9957 12.5076 34.263 14.1753 33.3786 15.7419Z" fill="white"/>
<path d="M1.13708 21.9828C3.31011 22.8672 5.63473 23.4484 8.06043 23.6758C9.90497 19.3803 14.1499 16.3987 19.1024 16.3987C21.6292 16.3987 23.9791 17.182 25.8994 18.5212C27.7945 17.0556 29.4369 15.3122 30.8519 13.3666C27.6176 10.8398 23.5242 9.32373 19.1024 9.32373C10.8146 9.32373 3.76492 14.6047 1.13708 21.9828Z" fill="white"/>
</svg>
