<svg width="16" height="16" viewBox="0 0 16 16" fill="none" xmlns="http://www.w3.org/2000/svg">
<circle cx="8" cy="8" r="8" fill="#848383"/>
<path d="M7.99932 8.80015C9.76663 8.80015 11.1993 7.36746 11.1993 5.60015C11.1993 3.83284 9.76663 2.40015 7.99932 2.40015C6.23201 2.40015 4.79932 3.83284 4.79932 5.60015C4.79932 7.36746 6.23201 8.80015 7.99932 8.80015Z" fill="white"/>
<path fill-rule="evenodd" clip-rule="evenodd" d="M2.39551 11.889C2.53122 11.5542 2.6976 11.2311 2.8934 10.9237C3.48902 9.98883 4.33023 9.23559 5.32494 8.74634C6.08236 9.35423 7.0242 9.68593 7.99539 9.68676C8.9665 9.68612 9.90832 9.35469 10.6658 8.74707C11.6607 9.23586 12.5019 9.98889 13.0974 10.9237C13.2936 11.2318 13.4602 11.5557 13.5961 11.8912C12.375 13.6658 10.3322 14.831 8.01681 14.8378H7.97629C5.65996 14.831 3.61642 13.6648 2.39551 11.889Z" fill="white"/>
</svg>
